<?xml version="1.0" encoding="iso-8859-1"?>
<!-- Generator: Adobe Illustrator 19.0.0, SVG Export Plug-In . SVG Version: 6.00 Build 0)  -->
<svg version="1.1" id="Capa_1" xmlns="http://www.w3.org/2000/svg" xmlns:xlink="http://www.w3.org/1999/xlink" x="0px" y="0px"
	 viewBox="0 0 480 480" style="enable-background:new 0 0 480 480;" xml:space="preserve">
<g>
	<g>
		<path d="M444,352h-48v-56c-0.048-39.744-32.256-71.952-72-72h-64v-12.376c19.942-13.295,31.943-35.657,32-59.624v-24h8
			c13.219,0.033,23.963-10.656,23.996-23.876c0.026-10.311-6.555-19.48-16.332-22.756C304.171,35.516,265.985,0.072,220,0h-16
			c-45.985,0.072-84.171,35.516-87.664,81.368c-12.535,4.2-19.292,17.765-15.092,30.3C104.52,121.445,113.689,128.026,124,128h8v24
			c0.054,23.968,12.056,46.331,32,59.624V224h-64c-39.744,0.048-71.952,32.256-72,72v120c0,4.418,3.582,8,8,8h56v48
			c0,4.418,3.582,8,8,8h288c4.418,0,8-3.582,8-8v-46.936l5.752,4.984c3.006,2.602,7.466,2.602,10.472,0l13.272-11.472l13.272,11.472
			c0.396,0.289,0.819,0.538,1.264,0.744c0.33,0.233,0.677,0.439,1.04,0.616c0.93,0.382,1.923,0.583,2.928,0.592
			c1.102-0.004,2.192-0.235,3.2-0.68c0.207-0.126,0.407-0.262,0.6-0.408c0.761-0.391,1.453-0.905,2.048-1.52
			c0.056-0.072,0.152-0.088,0.208-0.16c0.21-0.31,0.395-0.636,0.552-0.976c0.323-0.464,0.591-0.963,0.8-1.488
			c0.182-0.534,0.306-1.087,0.368-1.648c0.102-0.367,0.177-0.742,0.224-1.12v-64C452,355.582,448.418,352,444,352z M332,240.568
			c27.535,4.013,47.965,27.606,48,55.432v24h-48V240.568z M332,336h48v16h-48V336z M276,240h40v112h-40V240z M180,20.184V48
			c0,4.418,3.582,8,8,8s8-3.582,8-8V16.488c2.655-0.312,5.326-0.475,8-0.488v40c0,4.418,3.582,8,8,8s8-3.582,8-8V16
			c2.674,0.013,5.345,0.176,8,0.488V48c0,4.418,3.582,8,8,8s8-3.582,8-8V20.184c25.975,9.22,44.43,32.431,47.56,59.816H132.44
			C135.57,52.615,154.025,29.404,180,20.184z M124,112c-4.418,0-8-3.582-8-8s3.582-8,8-8h176c4.418,0,8,3.582,8,8s-3.582,8-8,8H124z
			 M148,152v-24h128v24c-0.011,20.014-10.712,38.498-28.064,48.472c-8.474,4.955-18.119,7.554-27.936,7.528h-16
			c-9.844,0.021-19.512-2.598-28-7.584C158.681,190.445,148.004,171.984,148,152z M244,219.896V240c0,17.673-14.327,32-32,32
			c-17.673,0-32-14.327-32-32v-20.12c1.488,0.536,3.016,0.968,4.544,1.4c0.312,0.088,0.608,0.2,0.912,0.32
			c2.676,0.69,5.39,1.224,8.128,1.6c0.656,0.096,1.304,0.176,1.96,0.248c2.805,0.353,5.629,0.537,8.456,0.552h16
			c2.824-0.019,5.645-0.204,8.448-0.552c0.664-0.08,1.32-0.16,1.976-0.256c2.722-0.379,5.419-0.913,8.08-1.6
			c0.352-0.096,0.696-0.224,1.048-0.328C241.048,220.848,242.544,220.416,244,219.896z M164,240c0,26.51,21.49,48,48,48
			c26.51,0,48-21.49,48-48v112h-48v-8c0-4.418-3.582-8-8-8h-40V240z M156,352h40v80h-40c-4.418,0-8-3.582-8-8v-1.008
			c1.086-0.321,2.155-0.7,3.2-1.136c0.48-0.176,0.984-0.304,1.456-0.504c1.76-0.76,3.447-1.678,5.04-2.744
			c0.344-0.232,0.64-0.52,0.976-0.76c1.214-0.872,2.368-1.823,3.456-2.848c0.48-0.472,0.904-0.984,1.36-1.48
			c0.856-0.909,1.657-1.868,2.4-2.872c0.424-0.592,0.8-1.2,1.2-1.816c0.645-1.031,1.227-2.099,1.744-3.2
			c0.312-0.656,0.624-1.304,0.896-1.984c0.47-1.236,0.863-2.5,1.176-3.784c0.16-0.624,0.36-1.216,0.48-1.848
			c0.811-3.959,0.811-8.041,0-12c-0.12-0.632-0.32-1.224-0.48-1.848c-0.313-1.284-0.706-2.548-1.176-3.784
			c-0.272-0.68-0.584-1.328-0.896-1.984c-0.517-1.101-1.099-2.169-1.744-3.2c-0.384-0.616-0.8-1.224-1.2-1.816
			c-0.743-1.004-1.544-1.963-2.4-2.872c-0.456-0.496-0.88-1.008-1.36-1.48c-1.088-1.025-2.242-1.976-3.456-2.848
			c-0.336-0.24-0.632-0.528-0.976-0.76c-1.593-1.066-3.28-1.984-5.04-2.744c-0.472-0.2-0.976-0.328-1.456-0.504
			c-1.045-0.436-2.114-0.815-3.2-1.136V360C148,355.582,151.582,352,156,352z M108,240h40v97.472
			c-9.555,3.378-15.958,12.394-16,22.528h-24V240z M44,296c0.035-27.826,20.465-51.419,48-55.432V320H44V296z M44,408v-72h48v32
			c0,4.418,3.582,8,8,8h40c8.837,0,16,7.163,16,16s-7.163,16-16,16H44z M316,424v40H108v-40h24c0,13.255,10.745,24,24,24h48
			c4.418,0,8-3.582,8-8v-14.472l5.208,4.512c3.007,2.607,7.473,2.607,10.48,0l13.2-11.448l13.216,11.448
			c3.007,2.607,7.473,2.607,10.48,0l13.208-11.448L291,430.04c3.007,2.607,7.473,2.607,10.48,0l13.216-11.448l2.192,1.904
			C316.324,421.579,316.02,422.779,316,424z M380,464h-48v-32.2c2.289,0.385,4.63-0.259,6.4-1.76l13.216-11.456l13.184,11.464
			c3.007,2.607,7.473,2.607,10.48,0l4.72-4.096V464z M436,406.512l-5.28-4.56c-3.004-2.597-7.46-2.597-10.464,0h0l-13.264,11.472
			l-13.24-11.472c-3.007-2.607-7.473-2.607-10.48,0l-13.232,11.464l-13.24-11.464c-3.007-2.607-7.473-2.607-10.48,0l-13.2,11.448
			l-13.184-11.448c-3.007-2.607-7.473-2.607-10.48,0l-13.216,11.456l-13.208-11.448c-3.008-2.611-7.48-2.611-10.488,0l-13.2,11.448
			l-13.216-11.448c-3.007-2.607-7.473-2.607-10.48,0l-13.2,11.448L212,404.352V368h224V406.512z"/>
	</g>
</g>
<g>
</g>
<g>
</g>
<g>
</g>
<g>
</g>
<g>
</g>
<g>
</g>
<g>
</g>
<g>
</g>
<g>
</g>
<g>
</g>
<g>
</g>
<g>
</g>
<g>
</g>
<g>
</g>
<g>
</g>
</svg>
